<svg fill="#646CFF" role="img" viewBox="0 0 26 24" xmlns="http://www.w3.org/2000/svg"><title>Vite</title><path d="M14.105 23.769a0.597 0.597 0 0 1-1.068-0.371v-5.448c0-0.66-0.536-1.197-1.198-1.197H5.824a0.597 0.597 0 0 1-0.486-0.945l3.956-5.54c0.565-0.789 0-1.889-0.974-1.889H1.03a0.601 0.601 0 0 1-0.569-0.782 0.628 0.628 0 0 1 0.084-0.164L5.678 0.251a0.597 0.597 0 0 1 0.489-0.251h15.277a0.597 0.597 0 0 1 0.488 0.946l-3.956 5.539c-0.565 0.791 0 1.891 0.974 1.892h6.016c0.249 0 0.444 0.145 0.537 0.337a0.586 0.586 0 0 1-0.066 0.631z"/></svg>