<svg fill="#FFFFFF" role="img" viewBox="0 0 24 24" xmlns="http://www.w3.org/2000/svg"><title>Three.js</title><path d="M0.38 0a0.268 0.268 0 0 0-0.256 0.332l2.894 11.716a0.268 0.268 0 0 0 0.01 0.04l2.89 11.708a0.268 0.268 0 0 0 0.447 0.128L23.802 7.15a0.268 0.268 0 0 0-0.112-0.45l-5.784-1.667a0.268 0.268 0 0 0-0.123-0.035L6.38 1.715a0.268 0.268 0 0 0-0.144-0.04L0.456 0.01A0.268 0.268 0 0 0 0.38 0z m0.374 0.654L5.71 2.08 1.99 5.664zM6.61 2.34l4.864 1.4-3.65 3.515z m-0.522 0.12l1.217 4.926-4.877-1.4z m6.28 1.538l4.878 1.404-3.662 3.53z m-0.52 0.13l1.208 4.9-4.853-1.392z m6.3 1.534l4.947 1.424-3.715 3.574z m-0.524 0.12l1.215 4.926-4.876-1.398z m-15.432 0.696l4.964 1.424-3.726 3.586zM8.047 8.15l4.877 1.4-3.66 3.527z m-0.518 0.137l1.236 5.017-4.963-1.432z m6.274 1.535l4.965 1.425-3.73 3.586z m-0.52 0.127l1.235 5.012-4.958-1.43z m-9.63 2.438l4.873 1.406-3.656 3.523z m5.854 1.687l4.863 1.403-3.648 3.51z m-0.54 0.04l1.214 4.927-4.875-1.4z m-3.896 4.02l5.037 1.442-3.782 3.638z"/></svg>