<svg fill="#42B883" role="img" viewBox="0 0 15 24" xmlns="http://www.w3.org/2000/svg"><title>Pinia</title><path d="M8.777 0.002c-0.079-0.01-0.193 0.024-0.31 0.09a2.346 2.346 0 0 0-0.415 0.311c-0.301 0.274-0.65 0.68-0.985 1.176-0.672 0.99-1.31 2.356-1.485 3.785-0.12 0.977-0.154 1.849-0.074 2.578a5.878 5.878 0 0 1 1.956-0.338c0.922 0 1.804 0.218 2.618 0.613 0.197-0.637 0.34-1.395 0.445-2.246 0.175-1.429-0.1-2.907-0.499-4.028a6.695 6.695 0 0 0-0.653-1.378 2.296 2.296 0 0 0-0.321-0.401c-0.097-0.092-0.199-0.153-0.277-0.162z m-6.81 2.965a0.603 0.603 0 0 0-0.288 0.117l-0.013 0.011a0.863 0.863 0 0 0-0.177 0.327c-0.051 0.15-0.094 0.344-0.126 0.565a8.205 8.205 0 0 0-0.044 1.637c0.08 1.222 0.397 2.665 1.079 3.769 0.093 0.15 0.193 0.296 0.294 0.442 0.726-0.776 1.567-1.385 2.488-1.768-0.1-0.79-0.06-1.714 0.066-2.744 0.038-0.31 0.1-0.616 0.176-0.916a6.45 6.45 0 0 0-1.692-1.08 4.575 4.575 0 0 0-1.29-0.366 1.805 1.805 0 0 0-0.474 0.006z m11.751 1.789c-0.21 0.003-0.442 0.022-0.687 0.06a5.974 5.974 0 0 0-2.132 0.76c-0.009 0.146-0.019 0.291-0.036 0.437-0.11 0.888-0.258 1.684-0.475 2.364 0.848 0.468 1.614 1.13 2.267 1.94 0.823-0.85 1.43-2.05 1.787-3.13 0.187-0.57 0.304-1.1 0.35-1.514 0.022-0.207 0.027-0.38 0.017-0.51-0.01-0.133-0.042-0.206-0.04-0.202a0.35 0.35 0 0 0-0.114-0.072 1.516 1.516 0 0 0-0.375-0.1 3.42 3.42 0 0 0-0.562-0.033z m-6.254 3.139c-2.014 0-3.83 1.087-5.147 2.834-1.316 1.748-2.131 4.16-2.131 6.807 0 2.65 0.806 4.258 2.131 5.218C3.632 23.707 5.46 24 7.464 24c2.004 0 3.831-0.293 5.147-1.246 1.326-0.96 2.133-2.568 2.133-5.218 0-2.647-0.816-5.059-2.133-6.806-1.317-1.748-3.134-2.835-5.147-2.835Zm-3.297 5.209a1.282 1.282 0 0 1 0.292 2.518c0.115 0.094 0.177 0.201 0.164 0.307-0.032 0.265-0.521 0.424-1.09 0.354-0.571-0.07-1.007-0.342-0.974-0.607 0.024-0.198 0.302-0.336 0.678-0.364a1.282 1.282 0 0 1 0.93-2.208z m6.284 0.22a1.282 1.282 0 0 1 0.726 2.303c0.437 0.058 0.757 0.244 0.757 0.466 0 0.267-0.466 0.483-1.04 0.483-0.574 0-1.04-0.216-1.04-0.483 0-0.098 0.063-0.189 0.17-0.265a1.282 1.282 0 0 1 0.427-2.505z m-6.318 0.215a0.822 0.822 0 1 0 0.028 1.645 0.822 0.822 0 0 0-0.028-1.645z m6.284 0.22a0.822 0.822 0 1 0 0.027 1.644 0.822 0.822 0 0 0-0.027-1.644z m-6.543 0.109a0.338 0.338 0 1 1-0.023 0.677 0.338 0.338 0 0 1 0.023-0.677z m6.284 0.22a0.339 0.339 0 1 1-0.018 0h0.018z m-3.91 1.179c0.17 0.252 0.432 0.404 0.808 0.447 0.372 0.043 0.694-0.05 0.976-0.28a0.145 0.145 0 1 1 0.183 0.226c-0.344 0.28-0.745 0.394-1.192 0.343-0.445-0.051-0.79-0.24-1.016-0.574a0.145 0.145 0 1 1 0.24-0.162z"/></svg>