<svg fill="#00599C" role="img" viewBox="0 0 22 24" xmlns="http://www.w3.org/2000/svg"><title>C++</title><path d="M21.394 6c-0.167-0.29-0.398-0.543-0.652-0.69L11.926 0.221c-0.509-0.294-1.34-0.294-1.848-0.001L1.26 5.31c-0.508 0.293-0.923 1.013-0.923 1.6v10.18c0 0.294 0.104 0.62 0.271 0.91 0.167 0.29 0.398 0.543 0.652 0.69l8.816 5.09c0.508 0.293 1.34 0.293 1.848 0l8.816-5.09c0.254-0.147 0.485-0.4 0.652-0.69 0.167-0.29 0.27-0.616 0.27-0.91V6.91c0.003-0.294-0.1-0.62-0.268-0.91zM11 19.11c-3.92 0-7.109-3.19-7.109-7.11 0-3.92 3.19-7.11 7.11-7.11a7.133 7.133 0 0 1 6.156 3.553l-3.076 1.78a3.567 3.567 0 0 0-3.08-1.78A3.56 3.56 0 0 0 7.444 12.001 3.56 3.56 0 0 0 11 15.556a3.57 3.57 0 0 0 3.08-1.778l3.078 1.78A7.135 7.135 0 0 1 11 19.11z m7.11-6.715h-0.79v0.79h-0.79v-0.79h-0.79v-0.79h0.79v-0.79h0.79v0.79h0.79z m2.962 0h-0.79v0.79h-0.79v-0.79h-0.79v-0.79h0.79v-0.79h0.79v0.79h0.79z"/></svg>