<svg fill="#06B6D4" role="img" viewBox="0 0 41 24" xmlns="http://www.w3.org/2000/svg"><title>Tailwind CSS</title><path d="M20.5 0c-5.333 0-8.667 2.667-10 8 2-2.667 4.333-3.667 7-3 1.522 0.38 2.608 1.483 3.813 2.707C23.275 9.697 25.543 12 30.5 12c5.333 0 8.667-2.667 10-8-2 2.667-4.333 3.667-7 3-1.522-0.38-2.608-1.483-3.813-2.707C27.727 2.303 25.458 0 20.5 0zM10.5 12c-5.333 0-8.667 2.667-10 8 2-2.667 4.333-3.667 7-3 1.522 0.38 2.608 1.483 3.813 2.707 1.962 1.99 4.23 4.293 9.187 4.293 5.333 0 8.667-2.667 10-8-2 2.667-4.333 3.667-7 3-1.522-0.38-2.608-1.483-3.813-2.707C17.727 14.303 15.458 12 10.5 12z"/></svg>