<?xml version="1.0" encoding="UTF-8"?>
<svg version="1.1" xmlns="http://www.w3.org/2000/svg" width="1536" height="1024">
<path d="M0 0 C506.88 0 1013.76 0 1536 0 C1536 337.92 1536 675.84 1536 1024 C1029.12 1024 522.24 1024 0 1024 C0 686.08 0 348.16 0 0 Z M1302 346 C1298.60026203 350.58637028 1296.35582702 355.36272094 1294.1875 360.625 C1293.84493164 361.44895264 1293.50236328 362.27290527 1293.14941406 363.12182617 C1288.02041955 375.6358637 1283.51059583 388.39875454 1280.01953125 401.46875 C1279.12768255 404.55775851 1278.14107823 407.58084169 1277.109375 410.625 C1275.01165669 416.86352433 1273.19063154 423.15720949 1271.4375 429.5 C1271.00147461 431.05654297 1271.00147461 431.05654297 1270.55664062 432.64453125 C1270.26853516 433.67964844 1269.98042969 434.71476562 1269.68359375 435.78125 C1269.39758301 436.80033447 1269.11157227 437.81941895 1268.81689453 438.86938477 C1268.25604587 441.01874589 1267.76017308 443.18579175 1267.31982422 445.36303711 C1265.62622269 453.53408282 1265.62622269 453.53408282 1262.390625 455.94140625 C1261.35421875 456.14636719 1260.3178125 456.35132813 1259.25 456.5625 C1258.10660156 456.81644531 1256.96320313 457.07039063 1255.78515625 457.33203125 C1254.53605469 457.55246094 1253.28695313 457.77289063 1252 458 C1250.60181389 458.29056209 1249.20468348 458.58624546 1247.80859375 458.88671875 C1244.21575509 459.64836346 1240.61310947 460.34034516 1237 461 C1237.13575439 460.46745605 1237.27150879 459.93491211 1237.41137695 459.38623047 C1238.96793357 453.26408185 1240.49652309 447.13540073 1242 441 C1242.25499268 439.96262695 1242.25499268 439.96262695 1242.51513672 438.90429688 C1244.60272225 430.28195663 1245.60950226 421.86025911 1246 413 C1245.34 413 1244.68 413 1244 413 C1244.061875 412.2575 1244.12375 411.515 1244.1875 410.75 C1243.96905704 407.54616994 1243.09749995 406.35968744 1241 404 C1238.03824877 404.61277612 1236.61941217 405.25372522 1234 407 C1233.01 404.03 1232.02 401.06 1231 398 C1230.34 398 1229.68 398 1229 398 C1229 398.66 1229 399.32 1229 400 C1228.01 400.33 1227.02 400.66 1226 401 C1224.76722873 402.86022072 1224.76722873 402.86022072 1223.8125 405.0625 C1223.214375 406.361875 1222.61625 407.66125 1222 409 C1222 405.37 1222 401.74 1222 398 C1221.01 398 1220.02 398 1219 398 C1219 398.66 1219 399.32 1219 400 C1218.39671875 400.20882812 1217.7934375 400.41765625 1217.171875 400.6328125 C1209.7157862 405.32639358 1207.33337565 422.38182823 1205.0625 430.3125 C1204.71815918 431.50415771 1204.37381836 432.69581543 1204.01904297 433.92358398 C1202.27986274 440.05650421 1200.7148011 446.17013974 1199.42578125 452.4140625 C1195.79158434 469.30592055 1195.79158434 469.30592055 1192.39404297 472.51855469 C1189.41868189 474.22727355 1186.57871653 474.84618711 1183.20703125 475.33203125 C1179.84103199 475.73168581 1179.84103199 475.73168581 1177.6015625 478.35546875 C1175.75938189 480.9915448 1175.75938189 480.9915448 1175.5625 484.5 C1174.86279753 488.85370426 1173.1672541 490.07638083 1170 493 C1170 493.99 1170 494.98 1170 496 C1171.98 496 1173.96 496 1176 496 C1176 499.27275026 1175.70074844 501.846632 1175 505 C1177.70751892 507.16682624 1177.70751892 507.16682624 1181 509 C1183.65941735 508.68531722 1183.65941735 508.68531722 1186 508 C1185.80664062 508.91136719 1185.61328125 509.82273437 1185.4140625 510.76171875 C1183.75168004 518.90184442 1182.50955032 527.05074288 1181.625 535.3125 C1181.46185303 536.68184692 1181.46185303 536.68184692 1181.29541016 538.07885742 C1181.21081543 538.93584229 1181.1262207 539.79282715 1181.0390625 540.67578125 C1180.95865723 541.43802002 1180.87825195 542.20025879 1180.79541016 542.9855957 C1180.83630912 545.09880747 1180.83630912 545.09880747 1182.32958984 546.78979492 C1184.0236809 548.30427118 1184.0236809 548.30427118 1186.6875 547.6875 C1187.450625 547.460625 1188.21375 547.23375 1189 547 C1189 549.31 1189 551.62 1189 554 C1189.99 554 1190.98 554 1192 554 C1194.07639763 551.12498789 1195.3543999 548.48624056 1196 545 C1197.485 545.99 1197.485 545.99 1199 547 C1199.99 545.02 1199.99 545.02 1201 543 C1201.99 544.32 1202.98 545.64 1204 547 C1204.99 546.67 1205.98 546.34 1207 546 C1208.13569237 543.72338035 1208.13569237 543.72338035 1208.97265625 540.8984375 C1209.31490234 539.85042969 1209.65714844 538.80242187 1210.00976562 537.72265625 C1210.35716797 536.61792969 1210.70457031 535.51320313 1211.0625 534.375 C1211.41376953 533.29347656 1211.76503906 532.21195313 1212.12695312 531.09765625 C1213.85128278 525.75842758 1215.50470855 520.4078416 1217 515 C1217.33 515.33 1217.66 515.66 1218 516 C1217.71125 517.155 1217.4225 518.31 1217.125 519.5 C1215.35467374 526.85642331 1215.32850706 534.4702724 1215 542 C1215.66 541.67 1216.32 541.34 1217 541 C1217.73643798 538.44633049 1218.35227786 535.94532574 1218.91015625 533.3515625 C1219.08252304 532.5832309 1219.25488983 531.81489929 1219.43247986 531.02328491 C1219.98374677 528.55887659 1220.52345016 526.09210663 1221.0625 523.625 C1221.60745737 521.16560668 1222.15475022 518.70674803 1222.70323181 516.24813843 C1223.04415393 514.71617718 1223.38258555 513.18365913 1223.71827698 511.65054321 C1224.36627191 508.70962192 1225.04683515 505.85949455 1226 503 C1228.78527811 502.03945544 1231.46136112 501.26426154 1234.3125 500.5625 C1235.95247241 500.13529811 1237.59179624 499.7055988 1239.23046875 499.2734375 C1240.44355713 498.95584473 1240.44355713 498.95584473 1241.68115234 498.63183594 C1246.52668163 497.31153379 1251.26251246 495.66276523 1256 494 C1255.72027344 494.97453125 1255.44054688 495.9490625 1255.15234375 496.953125 C1249.52626348 516.75912635 1243.99615627 536.63763844 1241.27197266 557.07617188 C1240.88765934 559.79465389 1240.3663983 562.48657698 1239.875 565.1875 C1238.2843802 575.3409564 1238.30849462 585.74318093 1238 596 C1240.15544931 592.76682604 1240.59105302 590.72177708 1241.3125 586.9375 C1242.52262975 581.01650799 1243.95099124 575.19949532 1245.5625 569.375 C1245.77237549 568.60534912 1245.98225098 567.83569824 1246.19848633 567.04272461 C1246.4023999 566.31448486 1246.60631348 565.58624512 1246.81640625 564.8359375 C1247.08626343 563.86986572 1247.08626343 563.86986572 1247.36157227 562.88427734 C1248.06406242 560.81092398 1248.98182154 558.93542491 1250 557 C1249.84442627 557.76103027 1249.68885254 558.52206055 1249.52856445 559.30615234 C1246.35676393 574.94283792 1243.467327 590.59125286 1241.125 606.375 C1241.01604401 607.0948407 1240.90708801 607.8146814 1240.79483032 608.55633545 C1239.66440905 616.06761237 1238.71306246 623.38771587 1239 631 C1240.75528451 627.79983416 1241.73499095 624.66133953 1242.6640625 621.13671875 C1242.97746582 619.95505127 1243.29086914 618.77338379 1243.61376953 617.5559082 C1243.94747559 616.2793335 1244.28118164 615.00275879 1244.625 613.6875 C1244.97866047 612.34911168 1245.33267039 611.01081565 1245.68701172 609.67260742 C1247.52332427 602.72005798 1249.32292799 595.75856403 1251.09375 588.7890625 C1257.11204081 565.11887382 1257.11204081 565.11887382 1260.3125 554.8125 C1260.65788818 553.6819519 1260.65788818 553.6819519 1261.01025391 552.52856445 C1262.20550309 548.80820888 1263.56366097 546.03232519 1266 543 C1266.69818299 541.43904335 1267.34268352 539.85319634 1267.9375 538.25 C1269.11670998 535.16797392 1270.34574087 532.26327262 1271.9375 529.375 C1274.04189833 525.30873231 1275.38290923 521.04301343 1276.75 516.6875 C1276.97292725 515.98093262 1277.19585449 515.27436523 1277.42553711 514.54638672 C1278.32730233 511.59341567 1279 509.10528583 1279 506 C1279 509.42089958 1278.71675866 511.48039569 1277.79418945 514.67895508 C1277.53003738 515.60545364 1277.26588531 516.53195221 1276.99372864 517.48652649 C1276.55790718 518.98786385 1276.55790718 518.98786385 1276.11328125 520.51953125 C1275.49796815 522.68031613 1274.88273667 524.84112424 1274.26757812 527.00195312 C1273.30025248 530.37607999 1272.33064667 533.74953239 1271.35864258 537.12231445 C1261.28023499 569.0013631 1261.28023499 569.0013631 1258 602 C1260.20525997 598.69211004 1261.05337898 595.89113536 1262.171875 592.078125 C1262.47609879 591.04614487 1262.47609879 591.04614487 1262.78646851 589.99331665 C1263.44648618 587.74711578 1264.0984597 585.49867312 1264.75 583.25 C1265.20546228 581.69284063 1265.66102933 580.13571191 1266.11669922 578.57861328 C1268.60233366 570.04610208 1270.95974159 561.49519426 1273.125 552.875 C1275.3838791 543.88880059 1278.17137226 535.14522901 1281.17138672 526.38037109 C1283.02910402 520.95115854 1284.74866741 515.53838047 1286.25 510 C1287.4459065 505.63783886 1288.85161768 501.85430486 1291.10546875 497.9375 C1292.12317815 495.95779392 1292.12317815 495.95779392 1292.42578125 493.4375 C1292.91882475 490.48781369 1293.37182014 488.52278419 1295 486 C1299.49617745 483.81076176 1304.10458808 482.90754638 1309 482 C1310.64690758 481.62974633 1312.29295338 481.25560319 1313.9375 480.875 C1314.97003906 480.6584375 1314.97003906 480.6584375 1316.0234375 480.4375 C1319.05956282 479.76547226 1322.02049324 478.88751265 1325 478 C1325 477.67 1325 477.34 1325 477 C1322.36 477 1319.72 477 1317 477 C1317.95777344 476.74307373 1318.91554688 476.48614746 1319.90234375 476.22143555 C1323.48919598 475.25812334 1327.07462496 474.28960171 1330.65966797 473.31958008 C1332.20518877 472.9021637 1333.75108126 472.48612083 1335.29736328 472.0715332 C1337.53259173 471.47196095 1339.76639269 470.8672987 1342 470.26171875 C1342.68054443 470.08033859 1343.36108887 469.89895844 1344.06225586 469.71208191 C1348.82950887 468.41236832 1353.39313776 466.78830834 1358 465 C1358 464.67 1358 464.34 1358 464 C1350.25610562 464.69037941 1342.78578188 466.1922708 1335.1875 467.8125 C1332.61080293 468.354765 1330.03397922 468.89642859 1327.45703125 469.4375 C1326.19584473 469.70304687 1324.9346582 469.96859375 1323.63525391 470.2421875 C1317.73370366 471.47243679 1311.8201508 472.64116345 1305.90307617 473.79418945 C1302.86194471 474.39319521 1299.94429 475.01857 1297 476 C1297 475.34 1297 474.68 1297 474 C1297.52335937 473.87367188 1298.04671875 473.74734375 1298.5859375 473.6171875 C1307.45973153 471.34848288 1316.23810957 468.66490677 1325 466 C1324.01 465.34 1323.02 464.68 1322 464 C1323.15935059 463.71278076 1324.31870117 463.42556152 1325.51318359 463.12963867 C1329.8562437 462.05299342 1334.19849748 460.97312595 1338.54052734 459.89233398 C1340.4120571 459.42695014 1342.2837981 458.96241489 1344.15576172 458.4987793 C1346.862228 457.82829738 1349.5678941 457.15466378 1352.2734375 456.48046875 C1353.50844498 456.17558784 1353.50844498 456.17558784 1354.7684021 455.86454773 C1360.56760676 454.4150203 1366.2880032 452.76120295 1372 451 C1368.88402514 450.15944165 1366.46629185 449.9608842 1363.23828125 450.234375 C1362.29637939 450.31252441 1361.35447754 450.39067383 1360.3840332 450.47119141 C1358.86362427 450.60920166 1358.86362427 450.60920166 1357.3125 450.75 C1356.25828857 450.84071777 1355.20407715 450.93143555 1354.11791992 451.02490234 C1345.26465707 451.81613124 1336.45864898 452.9080356 1327.64208984 454.02758789 C1320.35886942 454.9206813 1313.33886203 455.30585247 1306 455 C1332.9576474 448.45586439 1332.9576474 448.45586439 1345 446 C1345 445.34 1345 444.68 1345 444 C1336.86279764 444.3499872 1328.95062034 445.60142786 1320.9375 447 C1319.91390381 447.17821289 1318.89030762 447.35642578 1317.83569336 447.54003906 C1312.35258897 448.50401065 1312.35258897 448.50401065 1307 450 C1307.24121582 449.24195068 1307.48243164 448.48390137 1307.73095703 447.70288086 C1314.31335874 426.94624894 1320.35886064 406.19459228 1324.875 384.875 C1325.0905957 383.86074951 1325.30619141 382.84649902 1325.52832031 381.80151367 C1325.72264648 380.85381104 1325.91697266 379.9061084 1326.1171875 378.9296875 C1326.28847168 378.09679199 1326.45975586 377.26389648 1326.63623047 376.40576172 C1327.01490036 373.90145762 1327.06365822 371.52886511 1327 369 C1324.1723566 371.8276434 1323.42254748 375.24160952 1322.21484375 378.96484375 C1321.95369278 379.75395645 1321.69254181 380.54306915 1321.42347717 381.35609436 C1320.58917274 383.88140929 1319.76324099 386.40937354 1318.9375 388.9375 C1318.37750402 390.63755136 1317.81696365 392.33742349 1317.25585938 394.03710938 C1316.2283081 397.15246632 1315.20379067 400.26878148 1314.18334961 403.38647461 C1313.46085266 405.59272122 1312.73413391 407.79759827 1312 410 C1312.49091397 400.98918582 1313.99739829 392.42757177 1315.9375 383.625 C1318.01886872 374.10438394 1319.74910956 364.66454066 1321 355 C1318.37098712 356.52206009 1316.15634036 357.84365964 1314 360 C1314.33 356.37 1314.66 352.74 1315 349 C1310.57308796 352.89354914 1308.49739599 356.63261042 1306.3125 362.0625 C1305.72599867 363.47035986 1305.13878076 364.87792146 1304.55078125 366.28515625 C1304.29981689 366.90269775 1304.04885254 367.52023926 1303.7902832 368.15649414 C1302.9368587 370.14729068 1301.98517412 372.07146639 1301 374 C1301.144375 372.73285156 1301.28875 371.46570313 1301.4375 370.16015625 C1301.62525586 368.46096575 1301.81274139 366.76174537 1302 365.0625 C1302.09539062 364.23169922 1302.19078125 363.40089844 1302.2890625 362.54492188 C1302.89381481 356.99415957 1303.09014973 351.583649 1303 346 C1302.67 346 1302.34 346 1302 346 Z M1075 373 C1075.33 373.66 1075.66 374.32 1076 375 C1076.99 374.67 1077.98 374.34 1079 374 C1077.68 373.67 1076.36 373.34 1075 373 Z M1064 376 C1064 376.33 1064 376.66 1064 377 C1068.455 376.505 1068.455 376.505 1073 376 C1072.67 375.34 1072.34 374.68 1072 374 C1069.11604263 374 1066.70522185 375.05905327 1064 376 Z M1065.47998047 380.51708984 C1061.06364703 381.37705318 1056.63641963 382.17867912 1052.21142578 382.99267578 C1046.80626038 383.98783044 1041.40309516 384.99367577 1036 386 C1036 385.34 1036 384.68 1036 384 C1037.28777344 383.88785156 1038.57554688 383.77570313 1039.90234375 383.66015625 C1044.96280333 383.09788296 1049.68737399 381.86994443 1054.5625 380.4375 C1055.38041016 380.20353516 1056.19832031 379.96957031 1057.04101562 379.72851562 C1059.02920527 379.15880046 1061.01488299 378.58033086 1063 378 C1063 377.34 1063 376.68 1063 376 C1052.68559848 377.00299695 1042.74554653 378.82658785 1032.64331055 381.11206055 C1026.69804002 382.44667313 1020.77268426 383.58219383 1014.75 384.5 C1001.18591249 386.62668874 988.08907534 390.43770645 975.13671875 394.94458008 C968.77938832 397.14925822 962.5271381 398.89627959 955.8125 399.625 C949.55666352 400.61403327 943.83689746 402.7057293 937.9375 404.9375 C937.00848877 405.28570801 936.07947754 405.63391602 935.12231445 405.99267578 C929.50229381 408.13212662 929.50229381 408.13212662 925 412 C925.66 413.65 926.32 415.3 927 417 C926.36191406 417.18175781 925.72382812 417.36351562 925.06640625 417.55078125 C924.24011719 417.80214844 923.41382813 418.05351562 922.5625 418.3125 C921.73878906 418.55613281 920.91507813 418.79976563 920.06640625 419.05078125 C919.38449219 419.36402344 918.70257812 419.67726563 918 420 C917.67 420.99 917.34 421.98 917 423 C917.928125 423.61875 918.85625 424.2375 919.8125 424.875 C921.875 426.25 923.9375 427.625 926 429 C923.03 431.475 923.03 431.475 920 434 C920.33 434.66 920.66 435.32 921 436 C921.99 436 922.98 436 924 436 C924.33 436.99 924.66 437.98 925 439 C933.75307515 442.39404955 942.86476986 440.85262148 952 440 C951.59007812 440.99 951.18015625 441.98 950.7578125 443 C946.74319154 452.79309328 946.74319154 452.79309328 944 463 C943.39414062 463.03738281 942.78828125 463.07476562 942.1640625 463.11328125 C934.30528783 463.7298928 925.32920025 464.89580625 919 470 C918.12177688 472.08533633 918.12177688 472.08533633 918 474 C919.65 474.99 921.3 475.98 923 477 C921.7934375 477.7734375 921.7934375 477.7734375 920.5625 478.5625 C917.33552922 481.63205757 917.25103743 483.64868459 917 488 C917.99 488 918.98 488 920 488 C919.38151042 489.98567708 918.76302083 491.97135417 918.14453125 493.95703125 C917.78510494 496.06116321 917.78510494 496.06116321 919.15625 497.71875 C921.41548234 499.28872502 922.95851408 499.4897474 925.6875 499.6875 C926.49574219 499.75324219 927.30398438 499.81898438 928.13671875 499.88671875 C928.75160156 499.92410156 929.36648438 499.96148437 930 500 C929.70867188 500.92554688 929.41734375 501.85109375 929.1171875 502.8046875 C920.49579504 529.93039768 920.49579504 529.93039768 917 558 C917.66 558.66 918.32 559.32 919 560 C919.99 557.03 920.98 554.06 922 551 C921.80083984 552.88332031 921.80083984 552.88332031 921.59765625 554.8046875 C920.7109969 563.20113364 919.82648809 571.59737109 919 580 C924.55355816 571.66966276 927.4493875 561.10692372 930.26293945 551.54418945 C931.21650353 548.33674663 932.27997668 545.26921295 933.64453125 542.21875 C935.1940535 539.12127834 935.1940535 539.12127834 935 536 C935.99 536 936.98 536 938 536 C937.69964844 536.81984375 937.39929688 537.6396875 937.08984375 538.484375 C936.70957031 539.56203125 936.32929687 540.6396875 935.9375 541.75 C935.55464844 542.81734375 935.17179688 543.8846875 934.77734375 544.984375 C934.01989989 547.92280042 933.92848259 549.22348948 935 552 C938.10327184 545.22651242 941.15645496 538.43104876 944.1875 531.625 C944.53232422 530.85236816 944.87714844 530.07973633 945.23242188 529.28369141 C945.56177734 528.54296387 945.89113281 527.80223633 946.23046875 527.0390625 C946.52332764 526.38115723 946.81618652 525.72325195 947.11791992 525.04541016 C948.12335383 522.71396115 949.06579171 520.36077999 950 518 C947.8960886 528.55767132 944.40206884 538.10985709 940.3203125 548.04101562 C939.87945313 549.14251953 939.43859375 550.24402344 938.984375 551.37890625 C938.37674316 552.85725952 938.37674316 552.85725952 937.75683594 554.36547852 C936.96808512 557.11109469 937.0034683 558.36714454 938 561 C948.04134196 543.85210443 957.27142347 526.02078792 963.265625 507.01953125 C963.4824292 506.34067871 963.6992334 505.66182617 963.92260742 504.96240234 C964.52661874 503.05104413 965.10968817 501.13310441 965.69140625 499.21484375 C967.44863507 494.89783087 969.34015313 492.85890489 973.4609375 490.7265625 C981.64133385 487.63424109 989.91927802 485.28547079 998.39599609 483.14306641 C1003.10281145 481.92660484 1006.90740559 480.70183667 1011 478 C1012.91977001 477.22535596 1014.85818903 476.49533154 1016.8125 475.8125 C1018.27623047 475.29623047 1018.27623047 475.29623047 1019.76953125 474.76953125 C1020.50558594 474.51558594 1021.24164062 474.26164062 1022 474 C1020.06745228 471.9754262 1018.36841312 470.57894208 1016 469 C1018.97 468.01 1021.94 467.02 1025 466 C1025 465.34 1025 464.68 1025 464 C1022.69 464 1020.38 464 1018 464 C1019 461 1019 461 1021.0625 459.8125 C1022.0215625 459.4103125 1022.0215625 459.4103125 1023 459 C1022.67 458.01 1022.34 457.02 1022 456 C1018.7 456 1015.4 456 1012 456 C1012 455.01 1012 454.02 1012 453 C1012.66 452.67 1013.32 452.34 1014 452 C1008.67919702 449.68002903 1005.04047345 450.11662618 999.5625 451.25 C998.83740234 451.38535156 998.11230469 451.52070313 997.36523438 451.66015625 C992.82694193 452.53274797 988.42510733 453.67071875 984 455 C985.14462402 450.89549508 986.29090571 446.79145492 987.4375 442.6875 C987.76298828 441.52025391 988.08847656 440.35300781 988.42382812 439.15039062 C988.73642578 438.03212891 989.04902344 436.91386719 989.37109375 435.76171875 C989.65911865 434.73006592 989.94714355 433.69841309 990.24389648 432.63549805 C990.78649449 430.74420148 991.37779302 428.86662095 992 427 C992.66 427 993.32 427 994 427 C994 426.34 994 425.68 994 425 C995.03898438 424.75765625 996.07796875 424.5153125 997.1484375 424.265625 C1008.98881008 421.7467768 1008.98881008 421.7467768 1020 417 C1020.33 416.01 1020.66 415.02 1021 414 C1021.33 414.66 1021.66 415.32 1022 416 C1025.96 415.34 1029.92 414.68 1034 414 C1032.68 413.34 1031.36 412.68 1030 412 C1035.25580489 410.52468635 1039.51973682 410 1045 410 C1048.32186171 409.08885464 1048.32186171 409.08885464 1051 408 C1051 407.34 1051 406.68 1051 406 C1052.1859375 405.69707031 1053.371875 405.39414062 1054.59375 405.08203125 C1063.28866978 402.83963818 1071.9116025 400.48217385 1080.46484375 397.74658203 C1085.93534029 395.99999456 1091.4437433 394.44792283 1097 393 C1097 392.67 1097 392.34 1097 392 C1090.26702521 391.57617898 1084.20203854 393.1641061 1077.6875 394.75 C1075.34516944 395.30518287 1073.00272107 395.85986893 1070.66015625 396.4140625 C1069.51949707 396.68637695 1068.37883789 396.95869141 1067.20361328 397.23925781 C1056.63588004 399.74871192 1046.01999104 402.03108139 1035.375 404.1875 C1034.14837646 404.43814209 1034.14837646 404.43814209 1032.89697266 404.69384766 C1027.94371914 405.68327559 1023.01935538 406.43144602 1018 407 C1020.64502164 404.35497836 1026.16404544 403.90292207 1029.6875 402.9375 C1030.68201172 402.65583984 1031.67652344 402.37417969 1032.70117188 402.08398438 C1037.62049671 400.73223377 1041.86016012 399.79174069 1047 400 C1048.92005135 398.74882038 1048.92005135 398.74882038 1050 397 C1050 396.34 1050 395.68 1050 395 C1052.79101986 394.06053907 1055.58278617 393.12340052 1058.375 392.1875 C1059.53708984 391.79594727 1059.53708984 391.79594727 1060.72265625 391.39648438 C1066.44894318 389.47983462 1072.20804807 387.7069777 1078 386 C1078.82983398 385.7527417 1079.65966797 385.5054834 1080.51464844 385.25073242 C1090.73270215 382.21669272 1100.8415524 379.41636128 1111.359375 377.640625 C1112.66648437 377.32351563 1112.66648437 377.32351563 1114 377 C1114.33 376.34 1114.66 375.68 1115 375 C1098.57668831 374.78291113 1081.57058382 377.33071948 1065.47998047 380.51708984 Z M1062 392 C1061.34 392.66 1060.68 393.32 1060 394 C1061.32 393.67 1062.64 393.34 1064 393 C1063.34 392.67 1062.68 392.34 1062 392 Z M1053 395 C1052.34 395.66 1051.68 396.32 1051 397 C1052.98 396.67 1054.96 396.34 1057 396 C1055.10820797 395.3185177 1055.10820797 395.3185177 1053 395 Z M797 417 C796.67 417.66 796.34 418.32 796 419 C801.58369307 417.77679746 807.14716038 416.49338998 812.70239258 415.1472168 C820.76377776 413.19501691 828.79966916 411.28670297 837 410 C837 410.66 837 411.32 837 412 C835.6078125 411.9071875 835.6078125 411.9071875 834.1875 411.8125 C826.40356558 411.8125 819.00396089 414.8871285 812 418 C809.01648456 419.05215762 806.0132313 420.03658591 803 421 C803.495 422.98 803.495 422.98 804 425 C802.68 425.66 801.36 426.32 800 427 C803.13738355 428.04579452 804.32052696 427.96678325 807.4921875 427.44140625 C808.36230469 427.30283203 809.23242188 427.16425781 810.12890625 427.02148438 C811.03511719 426.87001953 811.94132813 426.71855469 812.875 426.5625 C814.66350044 426.26869326 816.45255289 425.97822361 818.2421875 425.69140625 C819.0347998 425.55935791 819.82741211 425.42730957 820.64404297 425.29125977 C823.11905943 424.98528105 825.5086948 424.95112381 828 425 C824.5058747 429.41605809 820.9518704 430.04784607 815.6875 431.0625 C810.09984128 432.18591865 805.17827284 433.58529681 800 436 C803.85272271 437.37458951 807.14091222 436.7321783 811.125 436.125 C812.98511719 435.85042969 812.98511719 435.85042969 814.8828125 435.5703125 C817.89419682 435.16912717 817.89419682 435.16912717 820 434 C819.34 435.32 818.68 436.64 818 438 C818.66 438.33 819.32 438.66 820 439 C818.88625 439.2475 817.7725 439.495 816.625 439.75 C814.60562946 440.50875643 814.60562946 440.50875643 813 442 C812.1546814 444.83347018 811.89987638 447.58541057 811.5703125 450.5234375 C810.85064368 454.91045975 809.26189408 458.64488365 807.52758789 462.71875 C804.73965435 469.39170116 802.61761372 476.24275656 800.47705078 483.14575195 C799.01469928 487.84944446 797.49367182 492.47656932 795.6875 497.0625 C793.853002 501.9258713 793.11409343 506.77586456 792.44921875 511.91796875 C791.94855536 515.35295497 791.10733803 518.59241382 790.07421875 521.90234375 C789.96118797 525.0969505 791.46554929 527.26906621 793 530 C792.42258057 530.31114746 791.84516113 530.62229492 791.25024414 530.94287109 C780.73514397 536.61854664 770.27114246 542.340478 760.01538086 548.47436523 C754.68601466 551.64518026 749.25763779 554.58911052 743.73071289 557.40136719 C740.7236285 558.95659691 738.20832156 560.40244191 736 563 C741.10339589 562.340167 745.44236531 560.13662814 750.0625 558 C750.93430908 557.60280762 751.80611816 557.20561523 752.7043457 556.79638672 C755.47170136 555.53554547 758.23605547 554.26829936 761 553 C764.55980095 551.3690054 768.12276639 549.74518003 771.6875 548.125 C772.48744385 547.75632812 773.2873877 547.38765625 774.11157227 547.0078125 C779.3102206 544.6449386 784.54811089 542.69808951 790 541 C772.6209554 550.11897293 755.22255549 559.09773686 737.44287109 567.41259766 C731.82866318 570.05680624 726.38564096 572.91679179 721 576 C724.46329748 577.15443249 725.05559927 576.85450239 728.32421875 575.55859375 C729.17991455 575.22520996 730.03561035 574.89182617 730.91723633 574.54833984 C731.83142334 574.1817627 732.74561035 573.81518555 733.6875 573.4375 C735.60141098 572.68841483 737.51547489 571.9397203 739.4296875 571.19140625 C740.37682617 570.81773926 741.32396484 570.44407227 742.29980469 570.05908203 C745.95625298 568.62493441 749.63141838 567.24440149 753.3125 565.875 C754.58472082 565.39996824 755.85685659 564.92470866 757.12890625 564.44921875 C758.06887451 564.09802979 758.06887451 564.09802979 759.02783203 563.73974609 C761.1545318 562.94203623 763.27859366 562.13755957 765.40234375 561.33203125 C766.49325317 560.91945068 766.49325317 560.91945068 767.60620117 560.49853516 C768.996351 559.97261809 770.38587747 559.44504919 771.7746582 558.91552734 C774.81995779 557.76575138 777.81353616 556.6839632 781 556 C780.34 556.33 779.68 556.66 779 557 C779 557.66 779 558.32 779 559 C785.07229517 557.09606576 790.84545181 554.84310718 796.625 552.1875 C802.54125121 549.51500365 808.47560806 546.91997263 814.5 544.5 C816.30984375 543.77296875 816.30984375 543.77296875 818.15625 543.03125 C821 542 821 542 823 542 C815.75041223 545.48672764 808.49819375 548.96792637 801.24365234 552.44433594 C798.49049064 553.76475942 795.73915125 555.08887559 792.98828125 556.4140625 C780.12782306 562.58366254 767.07936191 568.31171903 754 574 C757.9310801 575.31036003 760.39601341 574.12611136 764.1484375 572.82421875 C764.86509079 572.58347626 765.58174408 572.34273376 766.32011414 572.09469604 C768.67483514 571.30112468 771.02489824 570.49463832 773.375 569.6875 C775.00165225 569.13533926 776.62852609 568.58383096 778.25561523 568.03295898 C781.56893412 566.90923266 784.88020516 565.77974155 788.18994141 564.64550781 C791.93423634 563.36271673 795.6823541 562.09182354 799.4331665 560.82823181 C802.64486125 559.74527782 805.85358073 558.65365104 809.0625 557.5625 C810.21218262 557.17473389 811.36186523 556.78696777 812.54638672 556.38745117 C818.6779658 554.28207315 824.58478771 551.93873101 830.45629883 549.18969727 C832.79434248 548.09618669 835.14655819 547.05792616 837.51953125 546.04296875 C864.81871056 534.2867294 891.95181958 517.9268864 904.41796875 489.80078125 C907.52037303 481.59116992 908.2028889 473.96555278 908.25 465.25 C908.270625 464.3115625 908.29125 463.373125 908.3125 462.40625 C908.39314071 447.81028063 902.05085102 436.10301762 892.48046875 425.328125 C891.08336004 423.77740991 891.08336004 423.77740991 889 424 C888.76539063 423.4121875 888.53078125 422.824375 888.2890625 422.21875 C883.86200736 414.59884903 872.26932508 409.9033127 864.125 407.3125 C841.65927466 401.85697598 817.80935931 407.70160526 797 417 Z M1094.33984375 446.703125 C1088.45492139 453.19457139 1085.27719417 459.76956667 1085.67578125 468.6484375 C1087.01633974 478.3715244 1093.84272189 485.72023228 1101.19189453 491.64501953 C1111.83121785 500.40731084 1111.83121785 500.40731084 1124 505 C1124.54021265 509.12162247 1124.74116273 512.8946944 1124 517 C1120.41460718 521.43526371 1114.62164033 523.19853306 1109.46875 525.296875 C1098.48693103 529.83953824 1087.75383841 534.94653066 1077 540 C1075.81470703 540.5554248 1075.81470703 540.5554248 1074.60546875 541.12207031 C1062.27952895 546.942653 1050.65947162 553.95788551 1039 561 C1042.95377333 562.31792444 1045.24537407 561.03529309 1048.9375 559.5625 C1049.62827637 559.29606689 1050.31905273 559.02963379 1051.03076172 558.75512695 C1055.13509466 557.16232621 1059.21485099 555.51013069 1063.29296875 553.8515625 C1064.17927979 553.49247803 1065.06559082 553.13339355 1065.97875977 552.76342773 C1067.71239506 552.0585536 1069.44347416 551.34735184 1071.17163086 550.62915039 C1075.45166566 548.88110041 1079.36299406 547.51772396 1084 547 C1070.65351119 553.84632567 1070.65351119 553.84632567 1064.75 556.0625 C1060.45052535 557.71132766 1056.75082556 559.89515939 1052.84765625 562.3203125 C1049.57720406 564.24938581 1046.21700255 565.94984309 1042.8125 567.625 C1035.69320381 571.1394671 1028.61600941 574.73015043 1021.5625 578.375 C1020.53680908 578.89916504 1019.51111816 579.42333008 1018.4543457 579.96337891 C1017.02481567 580.70467041 1017.02481567 580.70467041 1015.56640625 581.4609375 C1014.28165405 582.12295166 1014.28165405 582.12295166 1012.97094727 582.79833984 C1010.85385564 583.84988977 1010.85385564 583.84988977 1010 586 C1016.85372922 583.76017303 1023.62331362 581.34260448 1030.375 578.8125 C1031.4170459 578.42247803 1032.4590918 578.03245605 1033.53271484 577.63061523 C1041.07714109 574.78232682 1048.53328954 571.76395715 1055.93505859 568.5637207 C1061.62786894 566.10735708 1067.08110944 564.03001688 1073.25 563.125 C1078.90052428 562.13634838 1083.76804998 560.30235318 1089 558 C1090.24548748 557.46733018 1091.49162582 556.93618059 1092.73828125 556.40625 C1096.16357967 554.94838392 1099.58294997 553.47711097 1103 552 C1096.56757394 558.43242606 1086.87972035 562.09348184 1078.68667603 565.62826538 C1075.49065816 567.00824691 1072.30844816 568.41944632 1069.125 569.828125 C1068.50482498 570.10182419 1067.88464996 570.37552338 1067.24568176 570.65751648 C1062.20976798 572.88733389 1057.23698629 575.22202749 1052.3125 577.6875 C1051.36177612 578.15917603 1051.36177612 578.15917603 1050.3918457 578.64038086 C1047.89761485 579.90683553 1045.99295078 581.00704922 1044 583 C1050.54470537 581.66730798 1056.71360439 579.86875966 1063 577.625 C1063.83789062 577.33367187 1064.67578125 577.04234375 1065.5390625 576.7421875 C1071.15604553 574.7597229 1076.593739 572.49908985 1082 570 C1080.66666667 571.33333333 1079.33333333 572.66666667 1078 574 C1085.47431311 572.05702232 1092.77940313 569.81540809 1100.0625 567.25 C1101.05765625 566.90146973 1102.0528125 566.55293945 1103.078125 566.19384766 C1111.43699145 563.24389559 1119.70723205 560.10132737 1127.9375 556.81152344 C1129.98083046 556.00754256 1132.03422843 555.23799139 1134.09375 554.4765625 C1146.96710617 549.65798164 1158.82426777 542.57795453 1166 530.4375 C1169.61361099 522.48755581 1169.35102962 512.88526068 1166.5625 504.6875 C1160.46084543 491.97922634 1148.86419448 485.36358682 1136.71484375 479.3828125 C1133.80717658 477.90178491 1131.53292808 476.04041428 1129 474 C1128.34 474 1127.68 474 1127 474 C1124.56078223 469.79912495 1124.99644818 466.70922481 1126.18359375 462.20703125 C1128.64421246 455.55511944 1134.11591404 452.29976036 1140 449 C1139.98259766 450.19496094 1139.98259766 450.19496094 1139.96484375 451.4140625 C1139.88148443 459.25478989 1139.88148443 459.25478989 1141 467 C1143.31 465.68 1145.62 464.36 1148 463 C1148 465.64 1148 468.28 1148 471 C1148.99 471 1149.98 471 1151 471 C1151.350625 470.05125 1151.70125 469.1025 1152.0625 468.125 C1154.59264499 464.04412098 1156.48884651 464.24445614 1161 463 C1163.78060468 460.29671417 1163.78060468 460.29671417 1166 457 C1166.721875 456.113125 1167.44375 455.22625 1168.1875 454.3125 C1171.2707569 448.67758222 1172.73621663 442.2080289 1171.5 435.8125 C1169.20864535 428.73540461 1164.46345457 423.62788069 1158.0625 420.02734375 C1131.36225151 406.72778816 1111.99279151 428.59327742 1094.33984375 446.703125 Z M371.25 410.4375 C368.62599237 412.79367478 368.62599237 412.79367478 368 416 C367.34 416 366.68 416 366 416 C364.23636975 417.95958917 362.61092317 419.9192473 361 422 C360.51160645 422.62648438 360.02321289 423.25296875 359.52001953 423.8984375 C354.59992061 430.32935788 350.38301021 437.13616735 346.19091797 444.05371094 C344.32152458 447.10881633 342.38179391 450.11721505 340.4375 453.125 C340.07503174 453.68896484 339.71256348 454.25292969 339.33911133 454.83398438 C337.41399792 457.82641528 335.47063702 460.8055981 333.5078125 463.7734375 C332.89401733 464.70905518 332.89401733 464.70905518 332.26782227 465.66357422 C331.49005291 466.84858153 330.70705122 468.03017889 329.91772461 469.20751953 C327.64128839 472.68839462 326.14888982 476.00595372 325 480 C325.57644392 459.88409499 325.57644392 459.88409499 328.32421875 450.5859375 C329.00269712 447.98967923 329.19861501 445.67418828 329.3125 443 C329.70560713 437.49650022 332.10487997 433.24850151 334.72265625 428.46875 C336.1531792 426.16721862 336.1531792 426.16721862 336 424 C335.4225 424.28875 334.845 424.5775 334.25 424.875 C331.125 426.4375 331.125 426.4375 328 428 C328 427.01 328 426.02 328 425 C324.45481116 426.39759905 324.45481116 426.39759905 321 428 C319.47700477 425.06279492 318.19899698 422.0831351 317 419 C312.57335436 418.69504515 312.57335436 418.69504515 308.625 420.5 C308.08875 420.995 307.5525 421.49 307 422 C306.4121875 421.2265625 306.4121875 421.2265625 305.8125 420.4375 C304.0717481 418.72185976 304.0717481 418.72185976 301.61328125 419.1875 C289.37140642 422.99364344 278.16048697 447.76124108 271.6875 457.8125 C271.01783203 458.84955078 270.34816406 459.88660156 269.65820312 460.95507812 C265.47665536 467.49630289 261.65533859 474.15337554 258 481 C256.62199817 483.48986102 255.21931594 485.96363804 253.8125 488.4375 C253.48314453 489.02208984 253.15378906 489.60667969 252.81445312 490.20898438 C251.05310049 493.30098115 249.21297114 496.21151934 247 499 C247.83118481 490.97250459 248.86774602 483.10893481 250.75 475.25 C252.81272957 466.46656695 254.41302227 457.60410571 255.94689941 448.71569824 C256.23093426 447.07976442 256.52019307 445.4447285 256.81481934 443.81066895 C257.23247189 441.48544021 257.63035309 439.15761712 258.0234375 436.828125 C258.15231354 436.12872803 258.28118958 435.42933105 258.41397095 434.70874023 C259.14038344 430.23009252 258.76343479 427.17284016 257 423 C255.35 423.99 253.7 424.98 252 426 C251.731875 425.38125 251.46375 424.7625 251.1875 424.125 C249.69357573 421.45166183 247.95332072 420.35235673 245.09765625 419.296875 C240.79581096 418.0683111 240.79581096 418.0683111 236.5 418.875 C236.005 419.24625 235.51 419.6175 235 420 C235 420.66 235 421.32 235 422 C233.783125 421.896875 232.56625 421.79375 231.3125 421.6875 C227.81129452 421.69368588 227.13880166 421.89512763 224.1875 424.125 C220.17758855 429.39516934 218.3524573 434.69184919 217.0625 441.125 C216.8977417 441.93267822 216.7329834 442.74035645 216.56323242 443.57250977 C212.89979265 462.20841924 210.31724188 481.00183773 210 500 C209.97421875 501.14162598 209.9484375 502.28325195 209.921875 503.45947266 C209.84298304 507.24382128 209.79188161 511.02757145 209.75 514.8125 C209.7176123 516.61170898 209.7176123 516.61170898 209.68457031 518.44726562 C209.66137468 524.74577241 209.87511511 529.46832246 213 535 C213.33 535.33 213.66 535.66 214 536 C214.59253729 539.27216454 215.14300072 542.54467968 215.63085938 545.83398438 C216.45371282 550.70365803 217.79002471 554.09272671 221 558 C224.65436277 559.11868248 226.3678011 559.21073297 230 558 C230.30292969 558.5775 230.60585937 559.155 230.91796875 559.75 C232.16914506 561.9674694 233.40442705 564.0142054 235 566 C237.63242673 566.83541854 237.63242673 566.83541854 240 566 C240.99 565.01 240.99 565.01 242 564 C243.98356483 563.28591666 245.98315437 562.61382258 248 562 C248 561.34 248 560.68 248 560 C248.66 560 249.32 560 250 560 C250.45375 558.9275 250.9075 557.855 251.375 556.75 C251.65214844 556.11320313 251.92929688 555.47640625 252.21484375 554.8203125 C252.81358086 553.43219562 253.38244005 552.03115187 253.9375 550.625 C254.4634375 549.820625 254.4634375 549.820625 255 549 C255.95724976 548.82235107 255.95724976 548.82235107 256.93383789 548.64111328 C259.11914925 548.19516205 259.11914925 548.19516205 260.16577148 546.32373047 C260.48102783 545.59557129 260.79628418 544.86741211 261.12109375 544.1171875 C261.678573 542.87751221 261.678573 542.87751221 262.24731445 541.61279297 C262.8364563 540.25758545 262.8364563 540.25758545 263.4375 538.875 C267.62478449 529.63657863 272.32818264 520.83694993 277.44506836 512.08154297 C281.04253839 505.87954702 284.15136136 499.57988696 287 493 C287 493.99 287 494.98 287 496 C287.2789614 499.29174452 287.57576861 502.58148904 287.87890625 505.87109375 C287.98694963 508.66279528 287.6872227 510.36127466 287 513 C287.08190683 527.74322923 290.92178673 539.91765852 298.8515625 552.140625 C300.02724957 554.04411835 301.02853561 555.98577109 302 558 C302.66 558 303.32 558 304 558 C304 557.01 304 556.02 304 555 C304.70125 555.845625 305.4025 556.69125 306.125 557.5625 C308.74884225 560.2644793 308.74884225 560.2644793 311.9375 560.25 C316.13466706 558.53687059 318.54375324 555.77147109 321 552 C321 551.34 321 550.68 321 550 C324.8171634 547.76175419 327.48483428 547.95246869 331.78125 548.3203125 C335.01228942 547.85385963 336.02424806 546.55043988 338 544 C339.15742516 541.09170096 339.15742516 541.09170096 339.9375 537.875 C341.01908591 533.75994289 342.37309849 530.16543239 344.34375 526.4140625 C347.46940067 520.33669449 349.45790709 513.98603614 351.5625 507.5 C361.64390089 477.24267682 376.52456046 446.83924477 395.58984375 421.1484375 C397.0988963 418.84932697 398.06327666 416.57938311 399 414 C394.5549447 417.48695687 391.05186623 421.0839468 387.625 425.5625 C387.15312256 426.1709375 386.68124512 426.779375 386.19506836 427.40625 C381.04820809 434.11643747 376.45592085 441.15833609 371.90234375 448.28125 C370 451 370 451 368 452 C373.79072679 441.17670027 379.93540626 430.73727892 386.7956543 420.55175781 C387.32843994 419.75350586 387.86122559 418.95525391 388.41015625 418.1328125 C389.12377319 417.07924561 389.12377319 417.07924561 389.85180664 416.00439453 C391.00432498 413.9924499 391.56011527 412.26580334 392 410 C388.16202456 411.56361962 385.8332373 414.02510083 383 417 C381.66666667 418.33333333 380.33333333 419.66666667 379 421 C379.66 418.69 380.32 416.38 381 414 C374.66476557 418.60646193 374.66476557 418.60646193 369 424 C373.37752776 416.74251977 378.73270684 410.49155887 384.29296875 404.13671875 C386.30635104 401.83070566 388.21214725 399.48824868 390 397 C384.03567299 397 375.42108249 406.36359327 371.25 410.4375 Z M668 448 C651.5662249 467.97281836 645.187685 489.42033767 647.23828125 514.96875 C649.07901002 526.12468192 654.33168334 538.89078423 663.47265625 545.89453125 C677.03607062 554.95588403 690.4895299 557.90674928 706.5625 555.45703125 C722.74958171 551.39117228 736.9893598 542.3561576 749 531 C749.65871094 530.41992188 750.31742188 529.83984375 750.99609375 529.2421875 C767.25365071 514.29875177 774.5464468 493.22816147 775.47485352 471.5559082 C775.62635466 459.54613333 772.35436944 449.43439312 765 440 C764.57203125 439.38640625 764.1440625 438.7728125 763.703125 438.140625 C758.42238273 431.1203441 750.0815689 427.03985619 742 424 C743.98 424 745.96 424 748 424 C742.703548 418.703548 733.69541987 418.92210203 726.625 418.6875 C702.71568399 418.94131439 683.77780313 430.58816293 668 448 Z M337 420 C337 423 337 423 337 423 Z M405.3984375 444.3359375 C403.78554645 445.89291362 403.78554645 445.89291362 404 448 C403.34 448 402.68 448 402 448 C387.09478095 466.05943553 378.35546274 488.48825634 380 512 C381.91694812 525.58337456 385.87387384 540.58201589 396.890625 549.55078125 C409.06958141 557.91817538 423.53413709 559.66024733 437.890625 557.3828125 C460.88525509 552.62813468 480.59158007 538.13180978 493.63867188 518.80249023 C504.4823792 502.15126495 511.21960663 483.1308863 507.234375 463.1640625 C502.74057364 446.4371352 493.04682327 434.00488069 478.07421875 425.0625 C451.64497293 411.52435525 424.51101816 425.37444444 405.3984375 444.3359375 Z M1054 427 C1051.25162683 429.13796411 1051.25162683 429.13796411 1049.66015625 430.7734375 C1048 432 1048 432 1045.44140625 432.40234375 C1042.88602486 432.74385257 1042.88602486 432.74385257 1041.7421875 434.79296875 C1038.47470748 443.81533474 1036.62981115 453.03919655 1035.125 462.5 C1033.70426781 470.51529742 1030.97307222 478.42338812 1027.0625 485.5625 C1024.13065623 491.31501778 1022.86777278 497.56729352 1021.375 503.8125 C1021.0759375 505.01970703 1020.776875 506.22691406 1020.46875 507.47070312 C1018.72373147 514.60906432 1017.19865713 521.74967862 1016 529 C1015.87584717 529.74789795 1015.75169434 530.4957959 1015.6237793 531.26635742 C1015.06194601 535.0722822 1014.74074976 538.32718679 1016 542 C1017.33378575 543.8354799 1017.33378575 543.8354799 1019 545 C1019.66 545 1020.32 545 1021 545 C1020.814375 545.5775 1020.62875 546.155 1020.4375 546.75 C1019.95976454 549.20692525 1020.24270636 550.64397534 1021 553 C1024.9429464 551.53403275 1026.01834588 549.62691725 1027.75 545.875 C1028.39195313 544.50988281 1028.39195313 544.50988281 1029.046875 543.1171875 C1029.36140625 542.41851563 1029.6759375 541.71984375 1030 541 C1030.66 542.98 1031.32 544.96 1032 547 C1032.66 547 1033.32 547 1034 547 C1033.67 547.99 1033.34 548.98 1033 550 C1033.66 550 1034.32 550 1035 550 C1035.33 549.34 1035.66 548.68 1036 548 C1036.94875 547.814375 1037.8975 547.62875 1038.875 547.4375 C1042.06270058 546.34873766 1042.06270058 546.34873766 1043.0625 544.046875 C1044.44792296 540.02381987 1045.41518544 536.29024958 1045 532 C1046.98 532.66 1048.96 533.32 1051 534 C1052.13660609 530.87910318 1053.25704207 527.75262039 1054.375 524.625 C1054.85066406 523.31982422 1054.85066406 523.31982422 1055.3359375 521.98828125 C1057.44491457 516.05678323 1058.93941453 510.20484252 1060 504 C1060.99 504.495 1060.99 504.495 1062 505 C1065.78669619 499.45312698 1068.34631364 495.15690667 1068.66796875 488.4140625 C1069.23516155 484.29023719 1071.07571968 480.68370074 1072.734375 476.89453125 C1078.8081113 463.00367139 1080.53195855 448.99335031 1080 434 C1079.34 434 1078.68 434 1078 434 C1078 433.34 1078 432.68 1078 432 C1072.40316075 430.17777327 1066.81130644 429.29279445 1060.98828125 428.46484375 C1058 428 1058 428 1055.7890625 427.29296875 C1055.19867187 427.19628906 1054.60828125 427.09960938 1054 427 Z M527 485 C523.88449135 488.20947991 523.56785291 490.6570583 523.5625 495.0625 C523.79286361 504.40269739 526.89641597 513.75458902 533 521 C533.66 521 534.32 521 535 521 C535.26425781 521.59167969 535.52851562 522.18335938 535.80078125 522.79296875 C540.5009522 531.4431205 551.11356943 535.82461923 560 539 C573.99244609 542.72034449 588.02466724 541.49724934 601 535 C614.46553405 527.08619702 624.24956568 517.40857922 629.2109375 502.31640625 C630.45511345 497.0871717 630.55125205 492.94775723 629.0625 487.6875 C626.48208407 484.32513985 624.31536527 483.38483208 620.28515625 482.27734375 C616.68145393 481.83997133 614.83909162 482.83688257 612 485 C609.59274443 488.50754158 608.30818816 491.86963627 607.125 495.9375 C605.49545454 501.07246303 603.67045996 504.1256256 600 508 C600 508.66 600 509.32 600 510 C599.2575 510.268125 598.515 510.53625 597.75 510.8125 C595.02997387 511.84744866 595.02997387 511.84744866 593.140625 513.46484375 C586.70061867 518.08331544 578.54417937 518.50438412 570.921875 517.56640625 C562.5776744 515.94888073 556.15623795 512.89696278 551 506 C547.51468503 500.34942123 545.37221838 494.57856587 543.87109375 488.12890625 C542.76878249 485.43491684 541.44886711 484.51308329 539 483 C534.29261645 481.21882784 531.30764284 482.68663625 527 485 Z M933 552 C934 554 934 554 934 554 Z M917 560 C918 562 918 562 918 562 Z M1237 596 C1238 598 1238 598 1238 598 Z " fill="#000000" transform="translate(0,0)"/>
<path d="M0 0 C4.60428934 1.31551124 8.18320388 3.09196486 12 6 C12 6.66 12 7.32 12 8 C12.58910156 8.23847656 13.17820312 8.47695313 13.78515625 8.72265625 C20.8736302 12.81071795 25.55358508 23.47879048 28 31 C30.43169919 42.88830714 28.40802329 56.5448041 22 67 C21.01 67.495 21.01 67.495 20 68 C20.19335938 67.3709375 20.38671875 66.741875 20.5859375 66.09375 C20.84632813 65.2378125 21.10671875 64.381875 21.375 63.5 C21.75785156 62.24703125 21.75785156 62.24703125 22.1484375 60.96875 C25.96959185 47.64729448 27.41987903 33.83975805 21 21 C16.40089998 13.51752639 9.76420162 6.85852097 2.2265625 2.3359375 C1.49179687 1.89507812 0.75703125 1.45421875 0 1 C0 0.67 0 0.34 0 0 Z " fill="#000000" transform="translate(743,430)"/>
<path d="M0 0 C6.65576713 -0.24799132 9.97762575 0.74425039 15 5 C20.44641574 10.80321368 23.42358773 15.64022718 23.28125 23.7890625 C21.10007146 40.93554937 10.8501189 53.72310775 -2.0625 64.375 C-10.12646024 70.51836404 -18.70602852 75.00677271 -28 79 C-28 75.69920979 -27.31623118 74.14285589 -25.953125 71.16796875 C-25.52201416 70.21067871 -25.09090332 69.25338867 -24.64672852 68.26708984 C-23.9553479 66.74269287 -23.9553479 66.74269287 -23.25 65.1875 C-19.79777248 57.45147332 -16.78215111 49.99625756 -14.81640625 41.7421875 C-14 39 -14 39 -12.51171875 36.546875 C-10.71989088 33.5280849 -10.05272954 30.79038702 -9.25 27.375 C-6.92993767 17.97874755 -3.45868178 9.02560499 0 0 Z " fill="#000000" transform="translate(852,438)"/>
<path d="M0 0 C3.28375747 2.91889553 4.79049372 5.34889562 6.1875 9.5 C6.51105469 10.4384375 6.83460938 11.376875 7.16796875 12.34375 C11.21696674 25.27012857 8.89324505 38.3256402 5 51 C4.34 51.99 3.68 52.98 3 54 C3 50.7 3 47.4 3 44 C3.66 44 4.32 44 5 44 C6.94150953 30.65212195 7.15387301 18.58372644 2 6 C1.3214114 4.00401354 0.65167703 2.00493429 0 0 Z " fill="#000000" transform="translate(495,447)"/>
<path d="M0 0 C1.44921875 2.14453125 1.44921875 2.14453125 2.6875 4.8125 C3.31205078 6.12154297 3.31205078 6.12154297 3.94921875 7.45703125 C7.99181836 17.24042288 5.84256539 26.48453483 2 36 C-5.62714714 50.79982695 -18.93137735 64.67290227 -35 70 C-39.40209467 71.40133347 -42.78499099 72.22500167 -47.375 71.375 C-50.35190208 69.81567034 -51.49814572 69.00370855 -53 66 C-54.47915203 59.28692541 -54.29982606 53.01149989 -50.80859375 46.921875 C-49.81242197 45.45611816 -48.79226122 44.00649504 -47.75390625 42.5703125 C-46.08168099 40.11970176 -44.67403468 37.60419011 -43.28027344 34.98779297 C-35.48978479 20.49559739 -21.88347029 4.75387309 -5.9921875 -0.6875 C-3.55910724 -1.06915965 -2.25758297 -1.01614223 0 0 Z " fill="#000000" transform="translate(469,451)"/>
<path d="M0 0 C4.7879351 6.6855923 5.60966044 13.99538422 5 22 C2.29193677 37.72053655 -6.3952981 50.61573994 -18.90625 60.234375 C-21.54838735 61.97106079 -24.20578957 63.52269842 -27 65 C-27.77085937 65.43054688 -28.54171875 65.86109375 -29.3359375 66.3046875 C-34.80174195 69.08553538 -39.91028518 70.02331287 -46 69 C-49.34424626 67.70114574 -52.3348875 66.33022499 -54 63 C-55.03235315 52.26352719 -51.4270598 41.95118025 -44.921875 33.5 C-42.78276802 30.71742181 -40.90213668 27.82404912 -39 24.875 C-31.83137839 14.14262769 -14.89008251 -8.3384462 0 0 Z " fill="#000000" transform="translate(735,453)"/>
<path d="M0 0 C0 8.27353923 -9.57792303 16.43889542 -15 22 C-24.27011952 31.04940239 -24.27011952 31.04940239 -30 33 C-28.33333333 31.33333333 -26.66666667 29.66666667 -25 28 C-24.443125 27.401875 -23.88625 26.80375 -23.3125 26.1875 C-22 25 -22 25 -20 25 C-19.7525 24.38125 -19.505 23.7625 -19.25 23.125 C-17.76259631 20.59641373 -16.56321991 20.28160996 -14 19 C-13.3147778 17.67610697 -12.65066214 16.34121624 -12 15 C-11.0936237 13.75085956 -10.15134308 12.52718933 -9.1796875 11.328125 C-8.37724609 10.33232422 -8.37724609 10.33232422 -7.55859375 9.31640625 C-7.00300781 8.63449219 -6.44742188 7.95257813 -5.875 7.25 C-5.03001953 6.20392578 -5.03001953 6.20392578 -4.16796875 5.13671875 C-2.78192264 3.42178035 -1.39252792 1.709676 0 0 Z " fill="#000000" transform="translate(766,501)"/>
</svg>
