<svg t="1778765732679" class="icon" viewBox="0 0 1024 1024" version="1.1" xmlns="http://www.w3.org/2000/svg" p-id="7238" width="200" height="200"><path d="M256 256m-256 0a256 256 0 1 0 512 0 256 256 0 1 0-512 0Z" fill="#0AE549" p-id="7239"></path><path d="M768 256m-256 0a256 256 0 1 0 512 0 256 256 0 1 0-512 0Z" fill="#0AE549" p-id="7240"></path><path d="M256 768m-256 0a256 256 0 1 0 512 0 256 256 0 1 0-512 0Z" fill="#0AE549" p-id="7241"></path><path d="M768 768m-256 0a256 256 0 1 0 512 0 256 256 0 1 0-512 0Z" fill="#0AE549" p-id="7242"></path></svg>